# xmcd
#
# Track frame offsets:
#	150
#	36528
#	60722
#	90177
#	118023
#	138876
#	171434
#	198802
#	230861
#	258694
#	286419
#	311120
#
# Disc length: 4494 seconds
#
# Revision: 0
# Processed by: cddbd v1.5.2PL0 Copyright (c) Steve Scherf et al.
# Submitted via: EZCDAudioConverter 2.1.7.1
#
DISCID=b3118c0c
DTITLE=Steve Winwood - Greatest Hits Live 2/2
DYEAR=1900
DGENRE=
TTITLE0=Rainmaker
TTITLE1=Pearly Queen
TTITLE2=Glad
TTITLE3=Why Can't We Live Together
TTITLE4=40,000 Headmen
TTITLE5=Walking In The Wind
TTITLE6=Medicated Goo
TTITLE7=John Barleycorn
TTITLE8=While You See A Chance
TTITLE9=Arc Of A Diver
TTITLE10=Freedom Overspill
TTITLE11=Roll With It
EXTD=
EXTT0=
EXTT1=
EXTT2=
EXTT3=
EXTT4=
EXTT5=
EXTT6=
EXTT7=
EXTT8=
EXTT9=
EXTT10=
EXTT11=
PLAYORDER=
